<?xml version="1.0" encoding="UTF-8"?>
<svg width="132px" height="60px" viewBox="0 0 132 60" version="1.1" xmlns="http://www.w3.org/2000/svg" xmlns:xlink="http://www.w3.org/1999/xlink">
    <!-- Generator: Sketch 55.2 (78181) - https://sketchapp.com -->
    <title>Group 11</title>
    <desc>Created with Sketch.</desc>
    <g id="Vender-Cars&amp;Vans" stroke="none" stroke-width="1" fill="none" fill-rule="evenodd">
        <g id="[desk]-0---Título" transform="translate(-862.000000, -173.000000)">
            <g id="Group-11" transform="translate(863.000000, 155.000000)">
                <rect id="Rectangle-3-Copy" x="5.80357143" y="0" width="119.553571" height="76.5217391"></rect>
                <g id="Page-1" transform="translate(0.000000, 18.550725)">
                    <path d="M32.1544838,51.2939977 L32.1544838,57.4376435 C32.1544838,58.199298 32.7729929,58.8160256 33.5350845,58.8160256 L41.4187092,58.8160256 C42.1815898,58.8160256 42.79931,58.199298 42.79931,57.4376435 L42.79931,51.9792505" id="Fill-15" fill="#F7D032"></path>
                    <path d="M0,58.5507246 L114.910714,58.5507246" id="Stroke-3" stroke="#AFAFAF" stroke-width="1.392" stroke-linecap="round"></path>
                    <path d="M122.39726,58.5507246 L129.361545,58.5507246" id="Stroke-5" stroke="#AFAFAF" stroke-width="1.392" stroke-linecap="round"></path>
                    <path d="M85.5031054,52.0462792 L85.5031054,57.4377222 C85.5031054,58.1993768 86.1216146,58.8161043 86.8837062,58.8161043 L94.7673309,58.8161043 C95.5294225,58.8161043 96.1479316,58.1993768 96.1479316,57.4377222 L96.1479316,51.9793292" id="Fill-17" fill="#F7D032"></path>
                    <path d="M85.0370146,2.92137223 C84.357759,1.59812544 83.7905294,0.902633224 82.4974982,0.902633224 L46.4283176,0.902633224 C45.1344975,0.902633224 44.5333445,1.68004071 43.9850488,3.02612926 L39.2144815,13.1576313" id="Stroke-19" stroke="#484848" stroke-width="1.16" stroke-linecap="round"></path>
                    <path d="M83.082794,6.19278486 C82.5723662,4.93254982 82.0343263,3.85504886 80.742084,3.85504886 L48.359502,3.85504886 C47.0664707,3.85504886 46.5260642,4.89001689 46.0180031,6.19278486 L40.7504196,18.2697748 C39.9820167,19.7355856 41.7988872,20.6082984 43.0927074,20.6082984 L86.0088786,20.6082984 C87.3019099,20.6082984 88.9854538,19.563091 88.3503775,18.2697748 L83.082794,6.19278486 Z" id="Fill-21" fill="#F7D032"></path>
                    <path d="M46.018082,6.19278486 C46.5261431,4.89001689 47.0665496,3.85504886 48.3595808,3.85504886 L80.7421629,3.85504886 C82.0344052,3.85504886 82.5724451,4.93254982 83.0828729,6.19278486 L88.3504564,18.2697748 C88.9855327,19.563091 87.3019887,20.6082984 86.0089575,20.6082984 L44.5057325,20.6082984" id="Stroke-23" stroke="#484848" stroke-width="1.16" stroke-linecap="round"></path>
                    <path d="M93.8691515,21.6702827 L97.7403559,30.0335175" id="Stroke-25" stroke="#484848" stroke-width="1.10683333" stroke-linecap="round"></path>
                    <path d="M84.838997,2.50069002 L92.5885062,18.9514832" id="Stroke-27" stroke="#484848" stroke-width="1.16" stroke-linecap="round"></path>
                    <path d="M35.2433216,21.8203295 L31.4399637,29.6306361" id="Stroke-29" stroke="#484848" stroke-width="1.16" stroke-linecap="round"></path>
                    <polygon id="Stroke-31" stroke="#484848" stroke-width="1.16" stroke-linecap="round" points="57.5276376 47.7562029 71.3391674 47.7562029 71.3391674 43.0815185 57.5276376 43.0815185"></polygon>
                    <polygon id="Fill-33" fill="#B3B3B3" opacity="0.4" style="mix-blend-mode: multiply;" points="78.4103677 37.0786252 50.048095 37.0786252 46.5626698 30.8530641 82.5174577 30.8530641"></polygon>
                    <path d="M44.0114774,45.2604649 C44.0114774,46.1316024 43.3345886,46.8389093 42.4991279,46.8389093 L36.4789198,46.8389093 C35.644248,46.8389093 34.9673592,46.1316024 34.9673592,45.2604649 L34.9673592,44.9438308 C34.9673592,44.0719057 35.644248,43.3661741 36.4789198,43.3661741 L42.4991279,43.3661741 C43.3345886,43.3661741 44.0114774,44.0719057 44.0114774,44.9438308 L44.0114774,45.2604649 Z" id="Fill-34" fill="#B3B3B3" opacity="0.4" style="mix-blend-mode: multiply;"></path>
                    <path d="M66.9204561,38.0263219 C66.311414,38.5831883 65.4996207,38.9234518 64.608936,38.9234518 C62.7155407,38.9234518 61.1811016,37.3906909 61.1811016,35.501126 C61.1811016,33.6123487 62.7155407,32.0780126 64.608936,32.0780126 C66.5015424,32.0780126 68.0359815,33.6123487 68.0359815,35.501126" id="Stroke-35" stroke="#484848" stroke-width="1.16" stroke-linecap="round"></path>
                    <path d="M67.6454687,35.5010472 C67.6454687,37.1755845 66.2853798,38.5334878 64.608936,38.5334878 C62.9317033,38.5334878 61.5716144,37.1755845 61.5716144,35.5010472 C61.5716144,33.8272976 62.9317033,32.4686067 64.608936,32.4686067 C66.2853798,32.4686067 67.6454687,33.8272976 67.6454687,35.5010472" id="Fill-36" fill="#F7D032"></path>
                    <path d="M92.7242784,19.1665895 C92.9972429,18.9365966 93.3506767,18.7979708 93.7356671,18.7979708 L98.5953817,18.7979708 C99.4631879,18.7979708 100.166111,19.5005518 100.166111,20.3653881 L100.166111,23.1347546 C100.166111,24.0011662 99.4631879,24.7013843 98.5953817,24.7013843 L95.2929847,24.7013843" id="Stroke-40" stroke="#484848" stroke-width="1.16" stroke-linecap="round"></path>
                    <path d="M33.7402024,24.77243 L30.4646285,24.77243 C29.5976112,24.77243 28.8938993,24.0690614 28.8938993,23.2050127 L28.8938993,20.4364339 C28.8938993,19.5700223 29.5976112,18.8682289 30.4646285,18.8682289 L35.3243431,18.8682289 C35.7124891,18.8682289 36.0675008,19.0092177 36.3420431,19.2415735" id="Stroke-41" stroke="#484848" stroke-width="1.16" stroke-linecap="round"></path>
                    <polyline id="Stroke-42" stroke="#484848" stroke-width="1.16" stroke-linecap="round" points="78.9078573 36.6248618 83.1963977 28.3159747 94.7153414 28.3159747"></polyline>
                    <polyline id="Stroke-43" stroke="#AFAFAF" stroke-width="0.624991889" opacity="0.4" style="mix-blend-mode: multiply;" stroke-linecap="round" points="34.4824922 58.294367 35.5364823 57.2404955 34.4824922 56.1881992 35.5364823 55.1351153 34.4824922 54.0820314 35.5364823 53.0313104 34.4824922 51.9790142"></polyline>
                    <polyline id="Stroke-44" stroke="#AFAFAF" stroke-width="0.624991889" opacity="0.4" style="mix-blend-mode: multiply;" stroke-linecap="round" points="36.8482896 58.294367 37.9022797 57.2404955 36.8482896 56.1881992 37.9022797 55.1351153 36.8482896 54.0820314 37.9022797 53.0313104 36.8482896 51.9790142"></polyline>
                    <polyline id="Stroke-45" stroke="#AFAFAF" stroke-width="0.624991889" opacity="0.4" style="mix-blend-mode: multiply;" stroke-linecap="round" points="39.2146393 58.294367 40.2686294 57.2404955 39.2146393 56.1881992 40.2686294 55.1351153 39.2146393 54.0820314 40.2686294 53.0313104 39.2146393 51.9790142"></polyline>
                    <polyline id="Stroke-46" stroke="#AFAFAF" stroke-width="0.624991889" opacity="0.4" style="mix-blend-mode: multiply;" stroke-linecap="round" points="88.2631235 58.294367 89.3171136 57.2404955 88.2631235 56.1881992 89.3171136 55.1351153 88.2631235 54.0820314 89.3171136 53.0313104 88.2631235 51.9790142"></polyline>
                    <polyline id="Stroke-47" stroke="#AFAFAF" stroke-width="0.624991889" opacity="0.4" style="mix-blend-mode: multiply;" stroke-linecap="round" points="90.6291576 58.294367 91.6831477 57.2404955 90.6291576 56.1881992 91.6831477 55.1351153 90.6291576 54.0820314 91.6831477 53.0313104 90.6291576 51.9790142"></polyline>
                    <polyline id="Stroke-48" stroke="#AFAFAF" stroke-width="0.624991889" opacity="0.4" style="mix-blend-mode: multiply;" stroke-linecap="round" points="92.9952706 58.294367 94.0492607 57.2404955 92.9952706 56.1881992 94.0492607 55.1351153 92.9952706 54.0820314 94.0492607 53.0313104 92.9952706 51.9790142"></polyline>
                    <path d="M50.1715601,51.9793292 L34.3640761,51.9793292 C32.2079722,51.9793292 30.4597372,50.2339037 30.4597372,48.0820524 L30.4597372,32.2133303 C30.4597372,30.0599037 32.2079722,28.3160534 34.3640761,28.3160534 L45.8830198,28.3160534 L50.1715601,36.6249406" id="Stroke-49" stroke="#484848" stroke-width="1.16" stroke-linecap="round"></path>
                    <path d="M45.1424655,8.25413556 L83.70935,8.25413556 L83.0829518,6.33936595 C82.572524,5.0807062 82.0344841,4.00320524 80.7422418,4.00320524 L48.3596597,4.00320524 C47.0658396,4.00320524 46.526222,5.03659797 46.0181609,6.33936595" id="Fill-50" fill="#B3B3B3" opacity="0.4" style="mix-blend-mode: multiply;"></path>
                    <polygon id="Fill-51" fill="#B3B3B3" opacity="0.4" style="mix-blend-mode: multiply;" points="32.1545627 54.006181 42.7993889 54.006181 42.7993889 51.9795655 32.1545627 51.9795655"></polygon>
                    <polygon id="Fill-52" fill="#B3B3B3" opacity="0.4" style="mix-blend-mode: multiply;" points="85.5025532 54.006181 96.1473794 54.006181 96.1473794 51.9795655 85.5025532 51.9795655"></polygon>
                    <path d="M94.5028078,28.3160534 C96.6589117,28.3160534 98.4071467,30.0599037 98.4071467,32.2133303 L98.4071467,48.0820524 C98.4071467,50.2339037 96.6589117,51.9793292 94.5028078,51.9793292 L50.1713235,51.9793292" id="Stroke-53" stroke="#484848" stroke-width="1.16" stroke-linecap="round"></path>
                    <path d="M43.6553613,36.3087003 C43.6553613,38.6771546 41.7319873,40.5982254 39.3589318,40.5982254 C36.9858764,40.5982254 35.0625023,38.6771546 35.0625023,36.3087003 C35.0625023,33.9386708 36.9858764,32.0191753 39.3589318,32.0191753 C41.7319873,32.0191753 43.6553613,33.9386708 43.6553613,36.3087003 L43.6553613,36.3087003 Z" id="Stroke-54" stroke="#484848" stroke-width="1.16" stroke-linecap="round"></path>
                    <path d="M68.7371689,18.816638 C68.7371689,15.1414776 71.7208443,12.1633846 75.4003425,12.1633846 C79.0806297,12.1633846 82.0635162,15.1414776 82.0635162,18.816638" id="Stroke-55" stroke="#AFAFAF" stroke-width="1.47577778" opacity="0.4" style="mix-blend-mode: multiply;" stroke-linecap="round"></path>
                    <path d="M48.7993219,18.816638 C48.7993219,15.1414776 51.7829973,12.1633846 55.4624955,12.1633846 C59.1427827,12.1633846 62.1256692,15.1414776 62.1256692,18.816638" id="Stroke-56" stroke="#AFAFAF" stroke-width="1.47577778" opacity="0.4" style="mix-blend-mode: multiply;" stroke-linecap="round"></path>
                    <path d="M94.1420371,45.2604649 C94.1420371,46.1316024 93.4651482,46.8389093 92.6296876,46.8389093 L86.6094794,46.8389093 C85.7748077,46.8389093 85.0979188,46.1316024 85.0979188,45.2604649 L85.0979188,44.9438308 C85.0979188,44.0719057 85.7748077,43.3661741 86.6094794,43.3661741 L92.6296876,43.3661741 C93.4651482,43.3661741 94.1420371,44.0719057 94.1420371,44.9438308 L94.1420371,45.2604649 Z" id="Fill-57" fill="#B3B3B3" opacity="0.4" style="mix-blend-mode: multiply;"></path>
                    <path d="M93.7861576,36.3087003 C93.7861576,38.6771546 91.8627836,40.5982254 89.4897281,40.5982254 C87.1166727,40.5982254 85.1932986,38.6771546 85.1932986,36.3087003 C85.1932986,33.9386708 87.1166727,32.0191753 89.4897281,32.0191753 C91.8627836,32.0191753 93.7861576,33.9386708 93.7861576,36.3087003 L93.7861576,36.3087003 Z" id="Stroke-58" stroke="#484848" stroke-width="1.10683333" stroke-linecap="round"></path>
                </g>
            </g>
        </g>
    </g>
</svg>