<svg xmlns="http://www.w3.org/2000/svg" xmlns:xlink="http://www.w3.org/1999/xlink" width="204" height="116" viewBox="0 0 204 116">
    <defs>
        <path id="a" d="M.66 5.716L23.238.138 28.09 19.43 5.515 25.007"/>
        <path id="c" d="M.262 10.192L39.694.45l5.016 19.932-39.433 9.743"/>
    </defs>
    <g fill="none" fill-rule="evenodd">
        <path fill="#D8D8D8" fill-rule="nonzero" stroke="#E3E3E3" stroke-linecap="round" stroke-width="1.2" d="M1.021 108.46h7.004"/>
        <path fill="#FFF" d="M57.286 62.352s-7.218 18.778-8.12 26.825c-.903 8.048 1.804 8.048 1.804 8.048s16.242 1.788 27.07 4.47c10.83 2.683 27.072 6.26 46.021 6.26 18.95 0 41.51-4.471 41.51-4.471s2.706-7.6-2.708-9.836c-5.414-2.235-22.559-6.26-22.559-6.26s-6.317-.893-11.73-4.47c-5.415-3.577-19.853-16.99-19.853-16.99s-9.926-5.364-18.047.895-12.633 8.942-18.95 6.259c-6.316-2.683-7.219-5.365-7.219-5.365l-1.804-1.788c-1.805-1.789-5.415-3.577-5.415-3.577z"/>
        <path fill="#F7D032" d="M145.718 114.484c-7.85 1.096-15.81.984-23.713.726-9.82-.32-19.697-1.51-29.5-2.282-10.122-.802-20.249-1.62-30.374-2.432-3.528-.284-7.062-.563-10.593-.847 0 0-6.402.046-5.077-4.489 1.472-5.034 1.394-8.21 4.2-7.987 0 0 17.94 1.473 42.919 7.43 24.977 5.952 64.419 2.758 74.39-1.5-.716 8.925-15.577 10.45-22.252 11.381zM60.48 77.443s2.146-4.252 7.232-6.999l-3.846-5.21-2.91-4.011-2.523-.199-3.081 3.952-2.965 8.583-.105 1.236 3.543 1.43 4.656 1.218z"/>
        <g transform="translate(47.176 80.235)">
            <mask id="b" fill="#fff">
                <use xlink:href="#a"/>
            </mask>
            <path fill="#B0B0B0" d="M2.825 5.181S17.17 6.993 21.91 10.345c4.737 3.352 4.593 6.023 4.966 8.095l-.114 1.317S14.085 16.123 3.485 16.94" mask="url(#b)" opacity=".234" style="mix-blend-mode:multiply"/>
        </g>
        <g transform="translate(129.291 87.389)">
            <mask id="d" fill="#fff">
                <use xlink:href="#c"/>
            </mask>
            <path fill="#B0B0B0" d="M2.686 19.824s4.444-8.55 9.989-11.31c5.544-2.759 13.637.023 18.523-4.415 0 0 9.85 1.73 7.588 10.022-2.271 8.286-.954 2.407-.954 2.407s-19.9 4.587-35.146 3.296" mask="url(#d)" opacity=".234" style="mix-blend-mode:multiply"/>
        </g>
        <g fill="#B0B0B0" fill-opacity=".4">
            <path d="M91.56 108.659c24.754 5.902 63.699 2.82 74.107-1.38 1.09-1.243 1.794-2.727 1.936-4.507-9.97 4.262-49.405 7.45-74.39 1.497-24.98-5.954-42.922-7.426-42.922-7.426-2.183-.179-2.621 1.714-3.4 4.943.423-.417.974-.614 1.747-.554 0 0 17.944 1.475 42.922 7.427z"/>
        </g>
        <g>
            <path fill="#F7D032" d="M86.821 68.29s6.732-18.929 15.32-10.795c8.583 8.131 6.442 6.528 6.442 6.528s-6.613-1.489-9.991-.468c-3.381 1.022-12.583 6.63-12.583 6.63l.812-1.895z"/>
            <path stroke="#484848" stroke-linecap="round" stroke-width="1.2" d="M49.725 97.192c15.178-.344 29.28 3.958 43.854 7.411 9.768 2.314 19.918 3.124 29.945 3.486 8.378.295 16.783.089 25.134-.75 6.263-.629 13.514-1.584 19.313-4.23M52.506 74.551s12.198 1.872 17.761 5.293c5.572 3.416 6.138 6.604 6.708 7.798.259.552 1.18 3.025 2.365 5.738"/>
            <path fill="#F7D032" d="M94.712 98.304c0 1.22-1 2.21-2.232 2.21-1.23 0-2.23-.99-2.23-2.21s1-2.21 2.23-2.21c1.233 0 2.232.99 2.232 2.21M105.866 98.304c0 1.22-1 2.21-2.232 2.21-1.23 0-2.23-.99-2.23-2.21s1-2.21 2.23-2.21c1.233 0 2.232.99 2.232 2.21"/>
            <path fill="#AFAFAF" fill-opacity=".4" d="M109.614 107.259l16.033-17.196 2.655.887-14.552 16.204zM78.397 93.203l17.56-17.583 2.81.688-18.887 19.22z"/>
            <path stroke="#484848" stroke-linecap="round" stroke-width="1.2" d="M98.302 76.973l-18.12 18.5M109.614 107.156l15.883-17.362M85.048 71.696c-5.558 3.835-17.518 2.881-21.454-5.174-4.277-8.765-6.667-4.815-11.013 7.962"/>
            <path stroke="#484848" stroke-linecap="round" stroke-width="1.2" d="M142.261 86.935c-3.697 3.75-8.807 4.818-13.883 3.954-5.72-.977-9.287-3.865-13.533-7.497-2.362-2.019-5.319-5.693-8.37-6.576-4.642-1.337-9.846-.102-14.52-1.31-2.621-.676-5.056-1.84-6.98-3.77M86.655 70.238S99.661 58.733 110 64.977M110.895 72.884c-.837.64-2.09.437-2.812-.465-.715-.9-.623-2.154.216-2.803l5.383-4.17c.839-.645 2.1-.44 2.818.46.716.907.62 2.162-.218 2.811l-5.387 4.167zM117.605 77.508c-.836.644-2.093.441-2.81-.466-.72-.898-.622-2.157.213-2.805l4.21-3.04c.838-.649 2.1-.44 2.815.46.72.907.62 2.163-.216 2.807l-4.212 3.044z"/>
            <path stroke="#484848" stroke-linecap="round" stroke-width="1.2" d="M124.438 81.914c-.76.73-2.036.654-2.845-.176-.807-.817-.84-2.08-.077-2.81l2.191-1.77c.771-.728 2.04-.65 2.852.176.809.823.84 2.079.077 2.81l-2.198 1.77zM131.827 83.857c-.09 1.063-1.037 1.857-2.115 1.772-1.079-.09-1.88-1.018-1.792-2.085a1.964 1.964 0 0 1 2.118-1.772 1.938 1.938 0 0 1 1.789 2.085zM167.97 103.14c.423-4.355 2.096-8.983-6.343-11.14-4.76-1.215-12.924-3.366-19.51-5.11"/>
        </g>
        <g>
            <path fill="#F5F5F5" stroke="#DEDEDE" stroke-linecap="round" stroke-width="1.2" d="M39.224 42.244c-.304-2.514-1.22-4.703-2.345-5.87-2.683-2.779-9.025-1.006-14.165 3.96-5.14 4.966-7.131 11.246-4.448 14.026 2.683 2.78 12.506 3.312 17.646-1.654 1.77-1.71 2.753-3.85 3.173-6.033"/>
            <path fill="#F5F5F5" stroke="#DEDEDE" stroke-linecap="round" stroke-width="1.2" d="M8.676 73.139c4.564 5.38 11.683 5.622 15.958 3.72 5.116-2.278 6.014-11.423 2.006-20.426-3.033-6.812-8.007-11.591-12.464-12.526m-4.057.35c-2.836 1.263-4.928 6.066-5.546 11.63-.472 4.248-.085 8.94 1.485 12.839.083.207.17.41.26.613"/>
            <path fill="#FFEA78" stroke="#E3E3E3" stroke-linecap="round" stroke-width="1.2" d="M14.888 59.006l.665.666M31.303 47.635l.665.666M13.247 67.827l-9.934 2.777M31.814 60.42l-5.051 1.263M13.415 41.107l-1.263 5.054M22.607 37.301l1.617 5.004M7.554 54.824l-6.766.504M42.909 42.19l-6.206.967"/>
            <path fill="#F5F5F5" stroke="#DEDEDE" stroke-linecap="round" stroke-width="1.2" d="M40.058 72.227c-3.132-4.645-7.74-7.273-14.945-2.41-7.204 4.862-14.277 15.373-11.145 20.018 3.132 4.646 11.51 4.47 18.715-.392 4.27-2.882 7.169-6.763 8.17-10.413"/>
            <path fill="#FFEA78" stroke="#E3E3E3" stroke-linecap="round" stroke-width="1.2" d="M26.252 77.957v1.211M36.143 65.112l-1.263 2.527M44.943 70.678l-9.565 5.225"/>
            <path fill="#F5F5F5" stroke="#DEDEDE" stroke-linecap="round" stroke-width="1.2" d="M42.802 94.85l1.98-8.142a1.263 1.263 0 0 0-1.227-1.562H6.724a1.263 1.263 0 0 0-1.227 1.562l5.158 21.21c.137.566.644.965 1.226.965h26.516"/>
            <path fill="#FFEA78" stroke="#E3E3E3" stroke-linecap="round" stroke-width="1.2" d="M7.241 90.932h23.016"/>
            <path fill="#D8D8D8" d="M6.838 90.38h36.881l-.789 4.507H7.608z" opacity=".2" style="mix-blend-mode:multiply"/>
            <path fill="#D8D8D8" d="M29.087 85.301h16.152l-5.97 23.128H27.59c2.109-4.737 3.163-8.591 3.163-11.564 0-2.972-.556-6.827-1.667-11.564zM33.314 72.176c-1.757-4.69-1.025-5.969 2.195-3.838 3.334 2.17 5 4.733 5 7.689 0 2.955-.907 5.882-2.723 8.781h-6.879c3.361-3.732 4.164-7.943 2.407-12.632z" opacity=".2" style="mix-blend-mode:multiply"/>
        </g>
        <g>
            <path fill="#E8E8E8" d="M153.99 31.055c1.764 0 3.35-.764 4.447-1.98a5.997 5.997 0 0 0 1.547-4.03c0-3.32-2.684-6.01-5.994-6.01-3.311 0-5.995 2.69-5.995 6.01a6.008 6.008 0 0 0 4.868 5.904c.365.07.741.106 1.127.106z"/>
            <path stroke="#DEDEDE" stroke-linecap="round" stroke-width="1.2" d="M148.905 28.241a5.974 5.974 0 0 0 3.482 2.542c3.198.86 6.485-1.043 7.342-4.25.857-3.206-1.04-6.502-4.239-7.36a5.992 5.992 0 0 0-6.948 3.185"/>
            <path fill="#F5F5F5" stroke="#DEDEDE" stroke-linecap="round" stroke-width="1.2" d="M170.814 14.65c.431.43.641 1.034.571 1.64l-2.15 18.614a2.007 2.007 0 0 1-2.216 1.764 1.995 1.995 0 0 1-1.188-.572m-4.73-4.73L143.396 13.66a2 2 0 0 1 .004-2.83c.32-.32.739-.522 1.188-.574l18.614-2.15c.606-.07 1.21.14 1.64.572"/>
            <path fill="#F5F5F5" stroke="#DEDEDE" stroke-linecap="round" stroke-width="1.2" d="M165.988 11.03l-1.3-1.305a1.004 1.004 0 0 1 .558-1.699L168 7.612a.998.998 0 0 1 .855.283l2.81 2.817c.224.224.328.542.281.856l-.413 2.763a1 1 0 0 1-1.694.56M177.41 103.178h22.54a3.001 3.001 0 0 1 2.997 3.005 3.001 3.001 0 0 1-2.998 3.005h-29.81"/>
            <path fill="#F5F5F5" stroke="#DEDEDE" stroke-linecap="round" stroke-linejoin="round" stroke-width="1.2" d="M175.97 104.18v-4.008h5.995v4.007"/>
            <path stroke="#DEDEDE" stroke-linecap="round" stroke-width="1.2" d="M169.783 8.278c2.54-4.667 5.729-7 9.569-7 2.906 0 9.569 1.544 9.569 13.18v84.347M184.924 38.693v54.245M184.924 23.667v11.02"/>
        </g>
    </g>
</svg>
